<?xml version="1.0" encoding="iso-8859-1"?>
<!-- Generator: Adobe Illustrator 19.1.0, SVG Export Plug-In . SVG Version: 6.00 Build 0)  -->
<svg version="1.1" id="Capa_1" xmlns="http://www.w3.org/2000/svg" xmlns:xlink="http://www.w3.org/1999/xlink" x="0px" y="0px"
	 viewBox="0 0 43 43" style="enable-background:new 0 0 43 43;" xml:space="preserve">
<g id="lock_1_">
	<g>
		<path d="M32.5,13c-0.304-8.233-4.379-13-11-13c-6.621,0-10.696,4.767-11,13l-7,0l0,30l36,0V13H32.5z M21.5,4
			c5.374,0,6.802,4.553,6.978,9H14.522C14.698,8.553,16.126,4,21.5,4z M35.5,39l-28,0l0-22l28,0V39z M19.5,29v6h4v-6
			c1.191-0.693,2-2.523,2-4c0-2.209-1.791-4-4-4c-2.209,0-4,1.791-4,4C17.5,26.477,18.309,28.307,19.5,29z"/>
	</g>
</g>
</svg>
